<?xml version="1.0"?>
<svg xmlns="http://www.w3.org/2000/svg" height="512px" viewBox="-52 0 496 496" width="512px"><g><path d="m152 128h32c4.414062 0 8 3.59375 8 8h16c0-13.230469-10.769531-24-24-24h-8v-8h-16v8h-8c-13.230469 0-24 10.769531-24 24v8c0 13.230469 10.769531 24 24 24h32c4.414062 0 8 3.59375 8 8v8c0 4.40625-3.585938 8-8 8h-32c-4.414062 0-8-3.59375-8-8h-16c0 13.230469 10.769531 24 24 24h8v8h16v-8h8c13.230469 0 24-10.769531 24-24v-8c0-13.230469-10.769531-24-24-24h-32c-4.414062 0-8-3.59375-8-8v-8c0-4.40625 3.585938-8 8-8zm0 0" data-original="#000000" class="active-path" data-old_color="#ffffff" fill="#ffffff"/><path d="m168 248c20.246094 0 40.023438-7.054688 55.6875-19.871094l-10.144531-12.386718c-12.800781 10.480468-28.984375 16.257812-45.542969 16.257812-39.703125 0-72-32.304688-72-72 0-16.558594 5.777344-32.742188 16.257812-45.550781l-12.378906-10.136719c-12.816406 15.664062-19.878906 35.441406-19.878906 55.6875 0 48.519531 39.480469 88 88 88zm0 0" data-original="#000000" class="active-path" data-old_color="#ffffff" fill="#ffffff"/><path d="m168 88c39.703125 0 72 32.304688 72 72 0 16.558594-5.777344 32.742188-16.257812 45.550781l12.378906 10.136719c12.816406-15.664062 19.878906-35.441406 19.878906-55.6875 0-48.519531-39.480469-88-88-88-20.246094 0-40.023438 7.054688-55.6875 19.871094l10.144531 12.386718c12.800781-10.480468 28.984375-16.257812 45.542969-16.257812zm0 0" data-original="#000000" class="active-path" data-old_color="#ffffff" fill="#ffffff"/><path d="m160 32h16v16h-16zm0 0" data-original="#000000" class="active-path" data-old_color="#ffffff" fill="#ffffff"/><path d="m71.839844 75.148438 11.3125-11.3125 11.3125 11.3125-11.3125 11.3125zm0 0" data-original="#000000" class="active-path" data-old_color="#ffffff" fill="#ffffff"/><path d="m40 152h16v16h-16zm0 0" data-original="#000000" class="active-path" data-old_color="#ffffff" fill="#ffffff"/><path d="m71.835938 244.851562 11.316406-11.3125 11.3125 11.3125-11.3125 11.3125zm0 0" data-original="#000000" class="active-path" data-old_color="#ffffff" fill="#ffffff"/><path d="m241.539062 244.851562 11.316407-11.3125 11.3125 11.3125-11.3125 11.3125zm0 0" data-original="#000000" class="active-path" data-old_color="#ffffff" fill="#ffffff"/><path d="m280 152h16v16h-16zm0 0" data-original="#000000" class="active-path" data-old_color="#ffffff" fill="#ffffff"/><path d="m241.539062 75.148438 11.316407-11.3125 11.3125 11.3125-11.3125 11.316406zm0 0" data-original="#000000" class="active-path" data-old_color="#ffffff" fill="#ffffff"/><path d="m368 360h-7.542969c1.765625-15.472656 8.65625-29.800781 19.832031-40.96875l1.375-1.375-11.3125-11.3125-1.375 1.375c-14.199218 14.203125-22.777343 32.527344-24.601562 52.28125h-24.78125c-2.523438-32.894531-20.472656-61.265625-46.859375-78.449219l35.832031-35.832031-18.445312-25.832031c2.496094-5.117188 4.695312-10.429688 6.550781-15.886719l31.328125-5.222656v-77.554688l-31.335938-5.222656c-1.855468-5.457031-4.054687-10.769531-6.550781-15.886719l18.445313-25.832031-54.839844-54.839844-25.832031 18.445313c-5.117188-2.503907-10.4375-4.695313-15.894531-6.558594l-5.207032-31.328125h-77.5625l-5.207031 31.335938c-5.464844 1.855468-10.785156 4.054687-15.894531 6.558593l-25.839844-18.453125-54.832031 54.839844 18.445312 25.832031c-2.496093 5.117188-4.695312 10.429688-6.550781 15.886719l-31.34375 5.222656v77.554688l31.335938 5.222656c1.855468 5.457031 4.054687 10.769531 6.550781 15.886719l-18.445313 25.832031 35.429688 35.433594c-14.640625 9.648437-26.757813 22.894531-35.054688 38.855468h-11.816406c-8.824219 0-16 7.175782-16 16v64c0 8.824219 7.175781 16 16 16h11.832031c8.960938 17.144532 22.734375 31.664063 39.414063 41.550782l5.890625 38.441406h61.640625l4-24h58.453125l4 24h61.640625l5.882812-38.367188c29.679688-17.449218 48.359375-47.730468 50.910156-81.632812h24.335938v8c0 13.230469 10.769531 24 24 24s24-10.769531 24-24-10.769531-24-24-24zm-319.664062-116.007812 16.304687-22.824219-2.359375-4.382813c-3.753906-6.976562-6.832031-14.441406-9.160156-22.167968l-1.441406-4.777344-27.679688-4.617188v-50.445312l27.6875-4.617188 1.441406-4.769531c2.320313-7.734375 5.40625-15.199219 9.160156-22.175781l2.359376-4.382813-16.304688-22.824219 35.679688-35.671874 22.824218 16.304687 4.382813-2.359375c6.960937-3.746094 14.425781-6.832031 22.175781-9.160156l4.769531-1.433594 4.609375-27.6875h50.4375l4.617188 27.679688 4.769531 1.433593c7.757813 2.335938 15.214844 5.414063 22.175781 9.160157l4.382813 2.359374 22.824219-16.304687 35.679687 35.671875-16.304687 22.824219 2.359374 4.382812c3.753907 6.976563 6.832032 14.441407 9.160157 22.175781l1.441406 4.769532 27.671875 4.625v50.445312l-27.6875 4.617188-1.441406 4.777344c-2.320313 7.734374-5.40625 15.191406-9.160156 22.167968l-2.359376 4.382813 16.304688 22.824219-29.625 29.625c-13.632812-6.113282-28.765625-9.617188-44.792969-9.617188h-63.46875c-2.777343-4.761719-7.882812-8-13.777343-8h-32c-7.824219 0-14.328126 5.65625-15.703126 13.089844-3.679687 1.175781-7.265624 2.542968-10.753906 4.101562zm87.679687 76.007812h-.015625c-17.648438 0-32-14.351562-32-32v-16h32zm121.625 125.519531-3.511719 1.886719-4.992187 32.59375h-34.359375l-4-24h-85.554688l-4 24h-34.359375l-5-32.632812-3.503906-1.894532c-16.757813-9.066406-30.351563-23.550781-38.289063-40.816406l-2.132812-4.65625h-21.9375v-64h21.9375l2.140625-4.65625c9.65625-21 26.816406-37.0625 47.921875-45.304688v1.960938c0 26.472656 21.527344 48 48 48 8.824219 0 16-7.175781 16-16v-40h61.238281c48.035157 0 88.707031 37.761719 90.683594 84.160156 1.445313 34.046875-16.289063 65.222656-46.28125 81.359375zm110.359375-53.519531c-4.414062 0-8-3.585938-8-8v-8h8c4.414062 0 8 3.585938 8 8s-3.585938 8-8 8zm0 0" data-original="#000000" class="active-path" data-old_color="#ffffff" fill="#ffffff"/><path d="m235.71875 336.96875-3.71875 3.71875-3.71875-3.71875c-5.785156-5.785156-13.472656-8.96875-21.65625-8.96875-16.882812 0-30.625 13.742188-30.625 30.625 0 8.175781 3.183594 15.871094 8.96875 21.65625l47.03125 47.03125 47.03125-47.03125c5.785156-5.785156 8.96875-13.472656 8.96875-21.65625 0-16.882812-13.742188-30.625-30.625-30.625-8.183594 0-15.871094 3.183594-21.65625 8.96875zm36.28125 21.65625c0 3.847656-1.558594 7.621094-4.28125 10.34375l-35.71875 35.71875-35.71875-35.71875c-2.722656-2.722656-4.28125-6.488281-4.28125-10.34375 0-8.066406 6.558594-14.625 14.625-14.625 3.847656 0 7.621094 1.558594 10.34375 4.28125l15.03125 15.03125 15.03125-15.03125c2.722656-2.722656 6.488281-4.28125 10.34375-4.28125 8.066406 0 14.625 6.558594 14.625 14.625zm0 0" data-original="#000000" class="active-path" data-old_color="#ffffff" fill="#ffffff"/><path d="m88 336c0 4.417969-3.582031 8-8 8s-8-3.582031-8-8 3.582031-8 8-8 8 3.582031 8 8zm0 0" data-original="#000000" class="active-path" data-old_color="#ffffff" fill="#ffffff"/></g> </svg>
