<svg height="496pt" viewBox="-52 0 496 496" width="496pt" xmlns="http://www.w3.org/2000/svg" xmlns:xlink="http://www.w3.org/1999/xlink"><linearGradient id="a" gradientTransform="matrix(8 0 0 -8 -80 504)" gradientUnits="userSpaceOnUse" x1="34.5" x2="34.5" y1="1" y2="63"><stop offset="0" stop-color="#9f2fff"/><stop offset="1" stop-color="#0bb1d3"/></linearGradient><path d="m144 136v8c0 4.40625 3.585938 8 8 8h32c13.230469 0 24 10.769531 24 24v8c0 13.230469-10.769531 24-24 24h-8v8h-16v-8h-8c-13.230469 0-24-10.769531-24-24h16c0 4.40625 3.585938 8 8 8h32c4.414062 0 8-3.59375 8-8v-8c0-4.40625-3.585938-8-8-8h-32c-13.230469 0-24-10.769531-24-24v-8c0-13.230469 10.769531-24 24-24h8v-8h16v8h8c13.230469 0 24 10.769531 24 24h-16c0-4.40625-3.585938-8-8-8h-32c-4.414062 0-8 3.59375-8 8zm24 112c20.246094 0 40.023438-7.054688 55.6875-19.871094l-10.144531-12.386718c-12.800781 10.480468-28.984375 16.257812-45.542969 16.257812-39.703125 0-72-32.304688-72-72 0-16.558594 5.777344-32.742188 16.257812-45.550781l-12.378906-10.136719c-12.816406 15.664062-19.878906 35.441406-19.878906 55.6875 0 48.519531 39.480469 88 88 88zm0-160c39.703125 0 72 32.304688 72 72 0 16.558594-5.777344 32.742188-16.257812 45.550781l12.378906 10.136719c12.816406-15.664062 19.878906-35.441406 19.878906-55.6875 0-48.519531-39.480469-88-88-88-20.246094 0-40.023438 7.054688-55.6875 19.871094l10.144531 12.386718c12.800781-10.480468 28.984375-16.257812 45.542969-16.257812zm8-56h-16v16h16zm-81.535156 43.152344-11.3125-11.3125-11.3125 11.3125 11.3125 11.3125zm-54.464844 92.847656h16v-16h-16zm54.464844 76.847656-11.3125-11.3125-11.3125 11.3125 11.3125 11.3125zm147.070312 0 11.3125 11.3125 11.3125-11.3125-11.3125-11.3125zm54.464844-92.847656h-16v16h16zm-31.832031-76.847656-11.3125-11.3125-11.3125 11.3125 11.3125 11.3125zm127.832031 308.847656c0 13.230469-10.769531 24-24 24s-24-10.769531-24-24v-8h-24.34375c-2.542969 33.902344-21.230469 64.183594-50.914062 81.632812l-5.878907 38.367188h-61.640625l-4-24h-58.453125l-4 24h-61.640625l-5.890625-38.449219c-16.679687-9.886719-30.453125-24.414062-39.414062-41.550781h-11.824219c-8.824219 0-16-7.175781-16-16v-64c0-8.824219 7.175781-16 16-16h11.824219c8.296875-15.953125 20.414062-29.207031 35.054687-38.855469l-35.429687-35.433593 18.445312-25.832032c-2.496093-5.117187-4.695312-10.429687-6.550781-15.886718l-31.34375-5.214844v-77.554688l31.335938-5.222656c1.855468-5.457031 4.054687-10.769531 6.550781-15.886719l-18.445313-25.832031 54.832032-54.839844 25.832031 18.445313c5.117187-2.503907 10.4375-4.695313 15.894531-6.558594l5.214844-31.328125h77.5625l5.207031 31.335938c5.464844 1.855468 10.785156 4.054687 15.894531 6.558593l25.832032-18.445312 54.832031 54.839843-18.445313 25.832032c2.496094 5.117187 4.695313 10.429687 6.550782 15.886718l31.351562 5.214844v77.554688l-31.335938 5.222656c-1.855468 5.457031-4.054687 10.769531-6.550781 15.886719l18.445313 25.832031-35.832032 35.832031c26.394532 17.183594 44.335938 45.554688 46.859376 78.449219h24.78125c1.832031-19.753906 10.402343-38.078125 24.601562-52.28125l1.375-1.375 11.3125 11.3125-1.375 1.375c-11.167969 11.167969-18.066406 25.503906-19.832031 40.96875h7.550781c13.230469 0 24 10.769531 24 24zm-314.457031-110.808594c3.488281-1.558594 7.074219-2.925781 10.753906-4.101562 1.375-7.433594 7.878906-13.089844 15.703125-13.089844h32c5.894531 0 11 3.238281 13.777344 8h63.46875c16.019531 0 31.160156 3.503906 44.792968 9.617188l29.625-29.625-16.304687-22.824219 2.359375-4.382813c3.753906-6.976562 6.832031-14.441406 9.160156-22.167968l1.441406-4.777344 27.679688-4.617188v-50.445312l-27.6875-4.617188-1.441406-4.769531c-2.320313-7.734375-5.40625-15.199219-9.160156-22.175781l-2.359376-4.382813 16.304688-22.824219-35.679688-35.671874-22.808593 16.304687-4.382813-2.359375c-6.960937-3.746094-14.425781-6.832031-22.175781-9.160156l-4.777344-1.441406-4.617187-27.679688h-50.4375l-4.617188 27.679688-4.761718 1.441406c-7.757813 2.335937-15.214844 5.414062-22.175782 9.160156l-4.390625 2.359375-22.824219-16.304687-35.679687 35.671874 16.304687 22.824219-2.359374 4.382813c-3.753907 6.976562-6.832032 14.441406-9.160157 22.175781l-1.441406 4.769531-27.671875 4.617188v50.445312l27.6875 4.617188 1.441406 4.777344c2.320313 7.734374 5.40625 15.191406 9.160156 22.167968l2.359376 4.382813-16.304688 22.824219zm58.457031-1.191406h-32v16c0 17.648438 14.351562 32 32 32h.015625zm167.921875 92.160156c-1.976563-46.398437-42.648437-84.160156-90.683594-84.160156h-61.238281v40c0 8.824219-7.175781 16-16 16-26.472656 0-48-21.527344-48-48v-1.960938c-21.105469 8.242188-38.265625 24.304688-47.921875 45.304688l-2.140625 4.65625h-21.9375v64h21.9375l2.140625 4.65625c7.9375 17.253906 21.53125 31.75 38.289063 40.816406l3.503906 1.894532 4.992187 32.632812h34.359375l4-24h85.546875l4 24h34.359375l4.992188-32.585938 3.511718-1.886718c30-16.144532 47.734376-47.320313 46.289063-81.367188zm72.078125 19.839844c0-4.414062-3.585938-8-8-8h-8v8c0 4.414062 3.585938 8 8 8s8-3.585938 8-8zm-118.625-56c16.882812 0 30.625 13.742188 30.625 30.625 0 8.175781-3.183594 15.871094-8.96875 21.65625l-47.03125 47.03125-47.03125-47.03125c-5.785156-5.785156-8.96875-13.472656-8.96875-21.65625 0-16.882812 13.742188-30.625 30.625-30.625 8.175781 0 15.871094 3.183594 21.65625 8.96875l3.71875 3.71875 3.71875-3.71875c5.785156-5.785156 13.472656-8.96875 21.65625-8.96875zm0 16c-3.847656 0-7.621094 1.558594-10.34375 4.28125l-15.03125 15.03125-15.03125-15.03125c-2.722656-2.722656-6.488281-4.28125-10.34375-4.28125-8.066406 0-14.625 6.558594-14.625 14.625 0 3.847656 1.558594 7.621094 4.28125 10.34375l35.71875 35.71875 35.71875-35.71875c2.722656-2.722656 4.28125-6.488281 4.28125-10.34375 0-8.066406-6.558594-14.625-14.625-14.625zm-177.375-16c-4.414062 0-8 3.585938-8 8s3.585938 8 8 8 8-3.585938 8-8-3.585938-8-8-8zm0 0" fill="url(#a)"/></svg>